<svg xmlns="http://www.w3.org/2000/svg" viewBox="0 0 200 200">
  <defs>
    <linearGradient id="gradient" gradientTransform="rotate(29 0.5 0.5)">
      <stop offset="0%" stop-color="#000000" />
      <stop offset="100%" stop-color="#605857" />
    </linearGradient>
  </defs>

  <rect width="200" height="200" fill="url(#gradient)" />

  <g fill="#000000" stroke="#9a9891" stroke-width="1.25" transform="matrix(10.69010989010989,0,0,10.69010989010989,28.80370989500821,176.00605761245055)">
    <path d="M5.75 0L1.07 0L1.07-14.22L5.65-14.22Q7.54-14.22 9.04-13.36Q10.55-12.51 11.39-10.95Q12.24-9.39 12.25-7.46L12.25-7.46L12.25-6.81Q12.25-4.85 11.42-3.31Q10.60-1.76 9.10-0.88Q7.60-0.01 5.75 0L5.75 0ZM5.65-11.57L4.50-11.57L4.50-2.64L5.69-2.64Q7.17-2.64 7.96-3.69Q8.75-4.74 8.75-6.81L8.75-6.81L8.75-7.42Q8.75-9.48 7.96-10.53Q7.17-11.57 5.65-11.57L5.65-11.57Z" />
  </g>
</svg>